<svg width="24" height="24" viewBox="0 0 24 24" fill="none" xmlns="http://www.w3.org/2000/svg">
<path fill-rule="evenodd" clip-rule="evenodd" d="M1.08178 4.00008C1.1681 3.99905 1.25594 4.0085 1.34373 4.02939L10.4764 6.20302C10.4911 6.20652 10.5058 6.21034 10.5203 6.21447C11.4599 6.48059 12.4497 6.50612 13.3997 6.29031C13.558 6.22922 13.7219 6.17802 13.8907 6.13752L22.674 4.02985C22.7587 4.00952 22.8434 3.99987 22.9269 4.00001C23.4104 3.99802 23.8501 4.32536 23.9694 4.8142C24.1091 5.38624 23.7571 5.96281 23.1832 6.102L14.5054 8.20692L14.1558 8.2998C14.1269 8.30747 14.098 8.31497 14.0691 8.32231C13.4693 8.60039 13.0663 9.20869 13.0663 9.89871L13.0663 10.7249C13.0663 11.2121 13.2064 11.6885 13.4693 12.0969L16.9066 17.4373C17.2391 17.954 17.9625 18.0158 18.3772 17.5676L22.1382 13.5031C22.5386 13.0703 23.2151 13.0431 23.6493 13.4423C24.0834 13.8414 24.1107 14.5158 23.7102 14.9486L19.9492 19.0131C18.583 20.4896 16.1938 20.2779 15.1065 18.5886L11.9969 13.7573L8.88727 18.5886C7.80002 20.2779 5.41078 20.4896 4.04457 19.0131L0.283571 14.9486C-0.116854 14.5158 -0.0895481 13.8414 0.34456 13.4423C0.778669 13.0431 1.45519 13.0703 1.85562 13.5031L5.61661 17.5676C6.0313 18.0158 6.75468 17.954 7.08723 17.4373L10.5245 12.0969C10.7874 11.6885 10.9276 11.2121 10.9276 10.7249V9.61533C10.9276 8.97411 10.4893 8.42307 9.87747 8.27624L0.819328 6.10261C0.245146 5.96483 -0.108274 5.38913 0.0299434 4.81675C0.148978 4.32382 0.59383 3.9941 1.08178 4.00008Z" fill="white"/>
</svg>
